<svg xmlns="http://www.w3.org/2000/svg" width="192.008" height="60.881" viewBox="0 0 192.008 60.881">
    <path data-name="business-insider-2 (1)" d="M40.949.435c1.384 0 2.775 0 4.166-.01-.015 4.974.05 9.949-.031 14.923-.036 3.21-1.39 6.632-4.333 8.225a11.67 11.67 0 0 1-10.8-.156c-2.775-1.624-4.124-4.964-4.049-8.079.015-4.969 0-9.938.011-14.908h4.043c.011 4.3-.01 8.6 0 12.9.071 1.977.076 4.128 1.264 5.813 1.6 2.2 4.949 2.407 7.2 1.168 2.037-1.229 2.472-3.791 2.512-5.98.035-4.631 0-9.266.014-13.9M59 .527a13.4 13.4 0 0 1 10.53 1.456c-.019 1.455-.019 2.906-.019 4.358-2.618-1.952-6.1-3.387-9.352-2.25a2.585 2.585 0 0 0-1.648 3.473c.556 1.3 2.068 1.683 3.264 2.169 2.578 1.026 5.55 1.577 7.461 3.756 2.457 2.967 1.835 8.251-1.765 10.056-4.049 2.1-9.11 1.43-12.992-.754 0-1.5 0-2.988-.02-4.484 2.922 2.25 6.977 3.585 10.556 2.215a2.766 2.766 0 0 0 .43-4.793c-2.746-1.663-6.117-2-8.751-3.887a6.643 6.643 0 0 1-2.036-7.563A6.522 6.522 0 0 1 59 .527M96.58.072c5.51 5.056 10.869 10.283 16.278 15.449V.431h4.042v24.407C111.386 19.6 106.023 14.206 100.477 9v15.305c-1.309.01-2.613.01-3.917.014.007-8.081-.034-16.159.02-24.248m30.944.354c4.879 0 9.752.025 14.625-.015.03 1.229.03 2.457.03 3.686H131.69v5.677c3.119.011 6.234 0 9.353.011v3.66q-4.679.007-9.353 0c0 2.4 0 4.808.011 7.209 3.488-.015 6.981 0 10.464-.011 0 1.264.01 2.533.01 3.8h-14.66c.01-8 0-16 .01-24.013m26.5.94c3.791-2.194 8.635-1.522 12.355.5.071 1.486.071 2.976.066 4.463-2.7-2.022-6.336-3.468-9.65-2.143a2.553 2.553 0 0 0-.39 4.488c2.784 1.6 6.187 1.92 8.791 3.882 3.5 2.608 3.24 8.923-.758 10.945-4.049 2.124-9.16 1.5-13.033-.748 0-1.477 0-2.952-.025-4.429 2.821 2.016 6.41 3.387 9.888 2.447a2.816 2.816 0 0 0 2.279-2.892 2.782 2.782 0 0 0-1.678-2.482c-2.73-1.416-5.952-1.815-8.427-3.731-3.231-2.5-3.017-8.24.587-10.308m24.265.082c3.76-2.275 8.685-1.664 12.4.414.015 1.472.015 2.938.026 4.409-2.675-2.022-6.325-3.392-9.595-2.057a2.565 2.565 0 0 0-.365 4.463c2.851 1.659 6.4 1.92 9.009 4.04 2.245 1.769 2.694 5.05 1.824 7.638-.814 2.3-3.135 3.648-5.415 4.14a15.1 15.1 0 0 1-10.343-1.672c-.051-1.5-.051-3-.056-4.5 2.942 2.184 6.951 3.584 10.525 2.208a2.76 2.76 0 0 0 .491-4.772c-2.822-1.765-6.38-2.016-9.024-4.11-3.117-2.5-2.971-8.09.522-10.195M0 .431c4.239.248 8.64-.623 12.742.713 4.554 1.46 5.2 8.584 1.046 10.9 3.786 1.568 4.655 6.936 2.057 9.909-1.6 1.9-4.206 2.406-6.567 2.477-3.094.051-6.183 0-9.277.015V.431M4.051 4.1q-.008 3.155 0 6.308c2.174-.106 4.429.3 6.551-.308 2.563-.743 2.583-4.964.036-5.732C8.489 3.823 6.24 4.2 4.051 4.1m0 9.853c-.01 2.274 0 4.55 0 6.816 2.5-.177 5.177.491 7.537-.556a3.333 3.333 0 0 0-.324-5.91c-2.325-.725-4.817-.192-7.214-.35M81.012.431h4.048v24.012h-4.048zM64.441 37.713c3.776-2.391 8.811-1.728 12.542.43-.02 1.446-.02 2.892-.015 4.337-2.729-2-6.48-3.538-9.767-2.006a2.523 2.523 0 0 0-.374 4.231c2.993 1.9 6.972 1.992 9.554 4.591 1.728 1.632 2.016 4.236 1.573 6.46a6.5 6.5 0 0 1-4.6 4.512 14.428 14.428 0 0 1-11.313-1.426c.011-1.481.015-2.962 0-4.443 2.847 2.138 6.714 3.544 10.212 2.29a2.745 2.745 0 0 0 .621-4.873c-2.825-1.765-6.42-1.986-9.019-4.17-2.946-2.49-2.754-7.849.582-9.932M16.053 36.7h4.039q.014 11.875 0 23.759h-4.039zm15.539-.556c5.379 5.135 10.746 10.292 16.172 15.378.02-4.985 0-9.964.01-14.943q2.016-.009 4.045-.006c.01 8.1-.011 16.2.01 24.305-5.485-5.2-10.863-10.514-16.306-15.759-.026 5.111 0 10.226-.011 15.342h-3.919q-.008-12.163 0-24.318zm56.876.556h4.045v23.761h-4.045zm15.677 0q4.884 0 9.777-.011a10.577 10.577 0 0 1 9.342 5.162 14.711 14.711 0 0 1 .864 11.546 10.558 10.558 0 0 1-9.251 6.986c-3.574.182-7.153.026-10.732.076zm4.166 3.664v16.427c2.9-.106 6.016.445 8.71-.909 2.592-1.335 3.777-4.368 3.7-7.159.106-2.821-.89-5.985-3.488-7.431-2.726-1.522-5.955-.733-8.923-.925m24.9-3.664q7.264-.007 14.534 0c0 1.223-.006 2.446-.006 3.67q-5.246-.015-10.485 0v5.55q4.672.009 9.353.006v3.539c-3.119 0-6.24-.006-9.353 0v7.319c3.494.011 6.992 0 10.49.006v3.664h-14.536zm26.418 0c3.28.03 6.562-.031 9.838.02 2.784.07 5.728 1.673 6.528 4.483a8.531 8.531 0 0 1-1.021 7.426A7.065 7.065 0 0 1 171 50.746q4.261 4.814 8.457 9.7-2.4.046-4.782 0c-2.71-3.22-5.472-6.395-8.195-9.595-.9.006-1.794.006-2.688.006-.01 3.2 0 6.4 0 9.6q-2.085.007-4.17 0V36.69m4.17 3.552c-.01 2.356 0 4.712 0 7.067 2.159-.121 4.416.339 6.506-.333a3.534 3.534 0 0 0 .1-6.289c-2.091-.8-4.4-.329-6.591-.441" style="fill:#fff"/>
</svg>
