<svg data-name="Group 2657" xmlns="http://www.w3.org/2000/svg" width="173.729" height="74.187" viewBox="0 0 173.729 74.187">
    <path data-name="Path 30823" d="m3.712 93.988 6.5-36.476h14.98l2.088 19.111 8.708-18.878h14.981l-6.618 36.593H33.9c1.935-9.945 3.29-20.006 5.806-29.833-3.947 10.06-8.824 19.888-13.236 29.833h-6.619c-.929-10.139-2.205-20.278-2.786-30.416-1.278 10.022-3.252 20.044-4.877 30.066zM58.168 70.1h-7.9L47.6 82.567c-3.442 10.644 18.541 12.314 20.67 1.516l3.13-13.752h-6.382l-2.786 12.936c-.425 4.545-7.74 3.807-6.966.233l2.9-13.4zm29.492 6.407 6.5-1.165c-3.348-6.992-20.184-7.459-21.6.7-.271 3.457 1.818 5.982 10.567 7.925 2.748.931 1.316 2.331-1.974 2.68a4.745 4.745 0 0 1-4.3-2.214l-7.422 1.047c1.47 6.7 20.2 9.344 23.338.116.948-4.428-3-6.72-9.173-8.041-3.715-.932-3.483-2.913-.116-3.03a6.646 6.646 0 0 1 4.18 1.982zm22.642 2.1 7.431-.233c-.891-5.2-3.792-8.245-9.636-8.158-8.439-.272-12.193 3.728-13.818 9.673-.9 7.021 2.1 11.391 10.8 11.886 4.664-.214 8.651-2.078 11.147-7.576l-6.85-.932c-2.9 6.448-9.328 3.884-6.734-3.146.773-5.5 7.2-7.945 7.663-1.515zm9.638-7.925-4.529 20.744h17.651l1.275-4.9h-9.986l3.6-15.615-8.011-.233zm34.135 21.093h-18.926l4.413-20.743h18.345l-1.161 4.545h-10.682l-.813 3.263 9.522.233-1.047 4.312-9.406-.233-.811 3.961h11.611l-1.047 4.662zm-7.895 9.438 6.5-1.164c-3.348-6.992-20.184-7.459-21.6.7-.272 3.457 1.817 5.981 10.565 7.924 2.748.932 1.317 2.331-1.973 2.681a4.75 4.75 0 0 1-4.3-2.215l-7.431 1.048c1.469 6.7 20.2 9.344 23.338.116.948-4.429-3-6.719-9.174-8.04-3.714-.932-3.482-2.915-.116-3.031a6.641 6.641 0 0 1 4.191 1.98zm23.944 0 6.5-1.164c-3.348-6.992-20.184-7.459-21.6.7-.272 3.457 1.817 5.981 10.567 7.924 2.748.932 1.315 2.331-1.973 2.681a4.747 4.747 0 0 1-4.3-2.215l-7.431 1.048c1.469 6.7 20.2 9.344 23.338.116.948-4.429-3-6.719-9.174-8.04-3.716-.932-3.484-2.915-.116-3.031a6.645 6.645 0 0 1 4.189 1.98z" transform="translate(-2.897 -56.51)" style="fill:#fff;fill-rule:evenodd"/>
    <path data-name="Path 30824" d="M127.091 118.352h-18.928l4.413-20.743h18.461l-1.161 4.543h-10.8l-.813 3.265 9.522.232-1.045 4.311-9.406-.232-.813 3.962h11.611l-1.045 4.662zM56.379 96.793H30.022l-6.27 36.707h10.8l2.438-13.985h11.96l1.161-8.041H38.265l1.278-6.525h15.326l1.51-8.158zm1.509.466h7.083L60.559 118h-7.548l4.877-20.743zm9.057 0h18.694l-1.046 4.893h-5.922l-3.25 15.966h-7.678l3.5-15.966h-5.464l1.165-4.893zM82.5 118.118l4.644-20.743h7.2c2.089 4.041 4.527 8.08 6.266 12.119.348-3.923 1.395-7.846 2.091-11.769h6.386l-4.413 20.509h-5.801a95.954 95.954 0 0 1-7.313-13.051c-.272 4.235-1.7 8.7-2.555 13.051zm-70.813-12.754c-3-3.88-.056-8.538 5.338-7.953 6.513.272 7.11 7.233 1.252 9.627l1.668 2.594a8.656 8.656 0 0 0 2.168-3.515l4.42 1a12.843 12.843 0 0 1-4.087 5.86 4.56 4.56 0 0 0 3.086.5l-.75 3.767q-2.752 1.047-5.838-1.255c-4.31 2.791-10.343 1.814-12.344-2.426-.972-3.518.306-6.083 5.088-8.2zm2.252 3.6 2.585 3.85a3.162 3.162 0 0 1-4.087-.419c-.471-1.702-.026-2.847 1.502-3.433zm2.419-4.938c1.891-.948 2.168-3.041.584-3.265-1.751.111-2.363 1.952-.584 3.263z" transform="translate(-3.081 -59.315)" style="fill:#fff;fill-rule:evenodd"/>
    <path data-name="Path 30825" d="m2.834 92.908 6.5-36.475h14.98L26.4 75.544l8.707-18.879H50.09l-6.617 36.593H33.024c1.934-9.944 3.289-20.006 5.8-29.833C34.881 73.486 30 83.313 25.592 93.258h-6.619c-.929-10.138-2.205-20.277-2.786-30.415-1.278 10.021-3.251 20.044-4.877 30.065zm54.457-23.89h-7.9l-2.67 12.47C43.281 92.131 65.265 93.8 67.393 83l3.135-13.752h-6.387l-2.786 12.939c-.425 4.545-7.74 3.807-6.966.233l2.9-13.4zm29.492 6.41 6.5-1.165c-3.349-6.992-20.184-7.458-21.6.7-.272 3.458 1.818 5.982 10.566 7.925 2.748.932 1.316 2.331-1.973 2.68a4.745 4.745 0 0 1-4.3-2.214L68.555 84.4c1.47 6.7 20.2 9.344 23.338.117.948-4.429-3-6.72-9.174-8.041-3.715-.932-3.483-2.913-.116-3.03a6.634 6.634 0 0 1 4.18 1.982zm22.642 2.1 7.431-.233c-.891-5.2-3.792-8.244-9.638-8.158-8.437-.273-12.192 3.728-13.817 9.672-.9 7.021 2.1 11.392 10.8 11.886 4.662-.213 8.649-2.077 11.147-7.575l-6.85-.932c-2.9 6.448-9.328 3.884-6.736-3.147.774-5.5 7.2-7.943 7.665-1.514zm9.636-7.924-4.527 20.743h17.649l1.277-4.895h-9.986l3.6-15.615zm34.139 21.09h-18.928l4.413-20.743h18.345l-1.16 4.549h-10.683l-.813 3.262 9.522.233-1.046 4.305-9.406-.232-.813 3.962h11.613l-1.044 4.664z" transform="translate(-2.834 -56.433)" style="fill:#fff;fill-rule:evenodd"/>
    <path data-name="Path 30826" d="m154.856 102.994 6.5-1.166c-3.348-6.992-20.184-7.458-21.6.7-.272 3.457 1.819 5.981 10.567 7.924 2.748.932 1.317 2.331-1.973 2.681a4.746 4.746 0 0 1-4.3-2.215l-7.431 1.048c1.469 6.7 20.2 9.344 23.338.118.948-4.429-3-6.721-9.174-8.042-3.714-.932-3.482-2.913-.116-3.031a6.657 6.657 0 0 1 4.189 1.983zm23.942 0 6.5-1.166c-3.348-6.992-20.184-7.458-21.6.7-.272 3.457 1.817 5.981 10.566 7.924 2.748.932 1.315 2.331-1.975 2.681a4.742 4.742 0 0 1-4.289-2.215l-7.432 1.048c1.469 6.7 20.2 9.344 23.338.118.95-4.429-3-6.721-9.172-8.042-3.716-.932-3.484-2.913-.116-3.031a6.647 6.647 0 0 1 4.182 1.983z" transform="translate(-12.387 -59.294)" style="fill:#fff;fill-rule:evenodd"/>
    <path data-name="Path 30827" d="M126.214 117.272h-18.928l4.414-20.743h18.46l-1.16 4.545h-10.8l-.813 3.263 9.522.232-1.045 4.313-9.408-.234-.811 3.962h11.611l-1.045 4.662zM55.5 95.713H29.144l-6.27 36.708h10.8l2.438-13.985h11.96l1.16-8.041H37.388l1.278-6.525h15.326l1.51-8.158zm1.509.466h7.083l-4.413 20.743h-7.546l4.878-20.743zm9.057 0h18.695l-1.045 4.895h-5.923l-3.249 15.964h-7.678l3.5-15.964H64.9zm15.559 20.859L86.271 96.3h7.2c2.089 4.041 4.525 8.08 6.266 12.121.348-3.925 1.393-7.848 2.089-11.771h6.388l-4.414 20.506H98a96.3 96.3 0 0 1-7.318-13.056c-.27 4.235-1.7 8.7-2.554 13.053zM10.81 104.284c-3-3.88-.056-8.538 5.338-7.953 6.512.272 7.11 7.235 1.251 9.627l1.668 2.6a8.655 8.655 0 0 0 2.168-3.517l4.421 1a12.84 12.84 0 0 1-4.087 5.86 4.56 4.56 0 0 0 3.086.5l-.751 3.767q-2.752 1.045-5.838-1.257c-4.31 2.791-10.342 1.814-12.344-2.426-.972-3.518.307-6.083 5.089-8.2zm2.252 3.6 2.585 3.85a3.164 3.164 0 0 1-4.087-.417c-.472-1.7-.028-2.847 1.5-3.433zm2.418-4.938c1.891-.948 2.168-3.041.584-3.265-1.75.11-2.364 1.952-.584 3.263z" transform="translate(-3.019 -59.238)" style="fill:#fff;fill-rule:evenodd"/>
</svg>
