<svg xmlns="http://www.w3.org/2000/svg" width="148" height="114.165" viewBox="0 0 148 114.165">
    <g data-name="Group 2622">
        <g data-name="Group 2595">
            <path data-name="Path 30740" d="m36.839-.211 55.077.5-9.57 16.767H36.839z" transform="translate(40.008 24.261)" style="fill:#fff"/>
            <path data-name="Path 30741" d="m0 18.7 71.4.069L43.3 0H0z" transform="rotate(90 27.147 68.406)" style="fill:#fff"/>
        </g>
        <g data-name="Group 2596">
            <path data-name="Path 30739" d="M-4.8.018h148l-10.8 17.77L6.205 17.4z" transform="translate(4.797 -.013)" style="fill:#fff"/>
            <path data-name="Path 30744" d="m20.381 6.565 11.782 19.02L19.2 38.377-5.372-.673z" transform="translate(5.867 1.372)" style="fill:#fff"/>
            <path data-name="Path 30743" d="M92.567-.211 36.311.82l9.747 16.048 46.509.188z" transform="translate(-20.325 24.26)" style="fill:#fff"/>
            <path data-name="Path 30742" d="M15.432 17.957h13.143l-6.307 4v20.337L89.512.133 0 0z" transform="rotate(90 23.794 48.448)" style="fill:#fff"/>
        </g>
    </g>
</svg>
