<svg xmlns="http://www.w3.org/2000/svg" width="84.266" height="65.001" viewBox="0 0 84.266 65.001">
    <g data-name="Group 2670">
        <g data-name="Group 2595">
            <path data-name="Path 30740" d="M36.839-.211 68.2.074l-5.451 9.547h-25.91z" transform="translate(6.915 13.904)" style="fill:#fff"/>
            <path data-name="Path 30741" d="m0 10.65 40.653.039L24.656 0H0z" transform="rotate(90 15.456 38.947)" style="fill:#fff"/>
        </g>
        <g data-name="Group 2596">
            <path data-name="Path 30739" d="M-4.8.016h84.265l-6.15 10.12-71.848-.222z" transform="translate(4.797 -.013)" style="fill:#fff"/>
            <path data-name="Path 30744" d="M9.291 3.448 16 14.277l-7.38 7.284L-5.372-.673z" transform="translate(5.654 1.071)" style="fill:#fff"/>
            <path data-name="Path 30743" d="m68.341-.211-32.03.587 5.549 9.137 26.481.107z" transform="translate(-27.209 13.904)" style="fill:#fff"/>
            <path data-name="Path 30742" d="M8.787 10.224h7.483L12.679 12.5v11.58l38.285-24L0 0z" transform="rotate(90 13.547 27.585)" style="fill:#fff"/>
        </g>
    </g>
</svg>
