<svg xmlns="http://www.w3.org/2000/svg" width="113.426" height="87.495" viewBox="0 0 113.426 87.495"><g transform="translate(-891.686 -154.699)"><g transform="translate(950.528 173.13)"><path d="M36.839-.211,79.049.173l-7.334,12.85H36.839Z" transform="translate(-36.786 0.211)" fill="#f58022"/><path d="M0,14.335l54.721.053L33.188,0H0Z" transform="translate(14.388 13.189) rotate(90)" fill="#f58022"/></g><g transform="translate(891.686 154.699)"><path d="M-4.8.017l113.426,0L100.35,13.636l-96.715-.3Z" transform="translate(4.797 -0.013)" fill="#104879"/><path d="M14.365,4.874l9.03,14.577-9.933,9.8L-5.372-.673Z" transform="translate(5.751 1.209)" fill="#104879"/><path d="M79.425-.211,36.311.579l7.47,12.3,35.644.144Z" transform="translate(-24.06 18.642)" fill="#104879"/><path d="M11.827,13.762H21.9l-4.833,3.069V32.413L68.6.1,0,0Z" transform="translate(55.365 18.894) rotate(90)" fill="#104879"/></g></g></svg>