<svg xmlns="http://www.w3.org/2000/svg" width="77.262" height="59.599" viewBox="0 0 77.262 59.599">
    <g data-name="Group 2669">
        <g data-name="Group 2595">
            <path data-name="Path 30740" d="m36.839-.211 28.752.262L60.6 8.8H36.839z" transform="translate(3.278 12.766)" style="fill:#f58022"/>
            <path data-name="Path 30741" d="m0 9.765 37.274.035L22.606 0H0z" transform="rotate(90 14.172 35.71)" style="fill:#f58022"/>
        </g>
        <g data-name="Group 2596">
            <path data-name="Path 30739" d="M-4.8.016h77.262l-5.636 9.276L.947 9.091z" transform="translate(4.797 -.013)" style="fill:#104879"/>
            <path data-name="Path 30744" d="m8.072 3.105 6.151 9.929-6.766 6.679L-5.372-.673z" transform="translate(5.63 1.038)" style="fill:#104879"/>
            <path data-name="Path 30743" d="M65.679-.211 36.311.328 41.4 8.705l24.28.1z" transform="translate(-27.966 12.765)" style="fill:#104879"/>
            <path data-name="Path 30742" d="M8.056 9.374h6.861l-3.292 2.09v10.615L46.729.069 0 0z" transform="rotate(90 12.421 25.292)" style="fill:#104879"/>
        </g>
    </g>
</svg>
