<svg xmlns="http://www.w3.org/2000/svg" width="196.658" height="26.755" viewBox="0 0 196.658 26.755">
    <path data-name="Path 30828" d="M67.7 26.672h18.881v-4.979H73.406v-6.108H84.33V10.6H73.406V4.979h13.255V0H67.7z" transform="translate(-39.42)" style="fill:#fff"/>
    <path data-name="Path 30829" d="M138.206 16.789 125.837 0h-8.517l2.653 3.375v23.38h5.7V9.24l12.774 17.432h5.464V0h-5.706z" transform="translate(-68.312)" style="fill:#fff"/>
    <path data-name="Path 30830" d="M19.683 12.95a5.939 5.939 0 0 0 4.6-6.1C24.262 3.292 21.693 0 16.55 0H0l2.569 3.292v23.392h14.558c5.146 0 7.795-3.212 7.795-7.231-.096-3.304-2.365-6.115-5.239-6.503zM8.275 5.013h7.152c1.93 0 3.133 1.128 3.133 2.811s-1.2 2.811-3.133 2.811H8.275zm7.39 16.709h-7.39v-6.137h7.39a3.047 3.047 0 0 1 3.375 3.054c0 1.926-1.287 3.054-3.375 3.054z" style="fill:#fff"/>
    <path data-name="Path 30831" d="M357.967 16.789h2.974v3.137a8.73 8.73 0 0 1-5.464 2.005c-4.741 0-8.112-3.613-8.112-8.513s3.372-8.518 8.113-8.518a7.323 7.323 0 0 1 6.107 3.375l4.5-2.506A12.108 12.108 0 0 0 355.4 0c-7.553 0-13.818 5.222-13.818 13.338s6.187 13.334 13.818 13.334a14.253 14.253 0 0 0 10.924-4.821v-9.879h-12.21z" transform="translate(-198.892)" style="fill:#fff"/>
    <path data-name="Path 30832" d="M290.151 16.789 277.777 0h-8.517l2.653 3.375v23.38h5.706V9.24l12.774 17.432h5.46V0h-5.7z" transform="translate(-156.782)" style="fill:#fff"/>
    <path data-name="Path 30833" d="M421.812 0h-11l2.648 3.375-.48 1.282-8.517 22.1h6.429l1.671-4.5h11.508l1.671 4.5h6.425zm-7.786 17.194L418.2 5.7l4.177 11.492z" transform="translate(-235.506)" style="fill:#fff"/>
    <path data-name="Rectangle 845" transform="translate(103.48)" style="fill:#fff" d="M0 0h5.706v26.756H0z"/>
    <path data-name="Path 30834" d="M208.759 4.578V0H188.67v4.979h12.615L188.67 22.094v4.578H209v-4.979h-12.936z" transform="translate(-109.857)" style="fill:#fff"/>
</svg>
