<svg xmlns="http://www.w3.org/2000/svg" width="154.641" height="56.615" viewBox="0 0 154.641 56.615">
    <path data-name="Yahoo Finance" d="M74.435 48.537v17.037h8.387v-13.5a4.4 4.4 0 0 1 .655-1.835 2.379 2.379 0 0 1 2.49-1.179 2.713 2.713 0 0 1 2.621 2.621v13.76h8.387v-7.862c0-6.684 0-7.994-.131-8.649a8.331 8.331 0 0 0-2.49-5.5 7.5 7.5 0 0 0-4.325-2.1 11.381 11.381 0 0 0-3.014.131 6.844 6.844 0 0 0-3.8 2.1l-.655.524V31.5h-8.387v17.037zm89.115-16.775c-.262.524-8.78 21.1-8.78 21.1h9.96l4.456-10.615c2.49-5.9 4.456-10.746 4.456-10.746h-9.96zM56.088 41.46a11.32 11.32 0 0 0-4.718 1.7 12.037 12.037 0 0 0-5.242 8.649 14.718 14.718 0 0 0 .262 5.373 11.67 11.67 0 0 0 7.339 8.387 9.31 9.31 0 0 0 3.407.524 6.492 6.492 0 0 0 1.966-.131 7.616 7.616 0 0 0 3.932-2.1l.524-.524v2.1h8.125V41.853h-8.125v2.1l-.393-.393a7.129 7.129 0 0 0-3.932-2.1 6.451 6.451 0 0 0-1.835-.131 6.723 6.723 0 0 1-1.31.131zm53.469 0a13.456 13.456 0 0 0-6.29 2.621 12.617 12.617 0 0 0-4.325 11.533 12 12 0 0 0 9.173 10.086 13.524 13.524 0 0 0 3.407.393 12.226 12.226 0 0 0 5.9-1.311 11.714 11.714 0 0 0 6.553-9.174 17.16 17.16 0 0 0 0-3.669 11.965 11.965 0 0 0-2.228-5.5 18.977 18.977 0 0 0-2.228-2.359 12.239 12.239 0 0 0-6.29-2.621 17.174 17.174 0 0 0-3.672.001zm26.735 0a11.815 11.815 0 0 0-6.159 2.621 12.557 12.557 0 0 0-2.233 2.359 13.575 13.575 0 0 0-2.228 5.5 17.175 17.175 0 0 0 0 3.669 12.249 12.249 0 0 0 9.829 10.353 9.363 9.363 0 0 0 2.752.262 11.731 11.731 0 0 0 6.028-1.442 12.33 12.33 0 0 0 6.29-13.629 12.114 12.114 0 0 0-10.615-9.7 17.174 17.174 0 0 0-3.664.007zM19 41.984s2.228 5.373 4.98 11.926 4.98 11.926 4.98 11.926-.786 1.966-1.835 4.325-1.835 4.194-1.835 4.325a41.664 41.664 0 0 0 4.456 0H34.2l6.684-16.119c3.669-8.912 6.684-16.119 6.684-16.25a32.639 32.639 0 0 0-4.456 0h-4.454l-2.752 6.813c-1.179 3.669-2.359 6.815-2.359 6.815s-1.18-3.145-2.752-6.815l-2.621-6.815h-4.587C21.1 41.984 19 41.984 19 41.984zm41.15 7.077a4.895 4.895 0 0 1 3.538 3.407 7.935 7.935 0 0 1 0 2.49 4.524 4.524 0 0 1-3.407 3.407 7.934 7.934 0 0 1-2.49 0 4.962 4.962 0 0 1-3.276-2.752 5.152 5.152 0 0 1 .393-4.587 5 5 0 0 1 5.242-1.965zm52.29.131a4.461 4.461 0 0 1 3.669 3.538 7.127 7.127 0 0 1 0 2.359 4.779 4.779 0 0 1-3.276 3.407 7.934 7.934 0 0 1-2.49 0 5.17 5.17 0 0 1-3.014-2.49 3.771 3.771 0 0 1-.393-2.1 4.186 4.186 0 0 1 .393-1.835 5.26 5.26 0 0 1 1.7-2.1 3.78 3.78 0 0 1 3.411-.779zm26.6 0a4.352 4.352 0 0 1 3.407 2.752 4.186 4.186 0 0 1 .393 1.835 5.433 5.433 0 0 1-.393 2.1 4.808 4.808 0 0 1-3.014 2.49 7.935 7.935 0 0 1-2.49 0 4.564 4.564 0 0 1-3.276-3.407 7.933 7.933 0 0 1 0-2.49 4.61 4.61 0 0 1 4.456-3.538c.265.127.659.127.921.258zm17.823 5.766a5.568 5.568 0 0 0-4.849 4.456 7.934 7.934 0 0 0 0 2.49 5.527 5.527 0 0 0 4.194 4.063c.262 0 .786.131 1.179.131a5.334 5.334 0 0 0 3.932-1.573 5.048 5.048 0 0 0 1.573-3.932 5.174 5.174 0 0 0-2.49-4.587 4.69 4.69 0 0 0-3.535-1.048zM87.8 67.8a2.674 2.674 0 0 0-1.573 3.932 2.983 2.983 0 0 0 1.179 1.048 2.587 2.587 0 0 0 1.179.131 2.909 2.909 0 0 0 1.179-.131 3.158 3.158 0 0 0 1.311-1.311 2.68 2.68 0 0 0-1.311-3.538 1.412 1.412 0 0 0-1.048-.262 1.684 1.684 0 0 0-.916.131zm-7.077.131a5.293 5.293 0 0 0-4.323 4.195 4.04 4.04 0 0 0-.131 1.311v.917h-1.834v3.932h1.835v9.436h4.98v-9.436h3.407v-3.932H81.25v-.393c.131-.917.524-1.573 1.311-1.7a2.949 2.949 0 0 1 1.835.131 1.014 1.014 0 0 0 .393.131v-4.197l-.393-.131a4.8 4.8 0 0 0-2.1-.262 6.218 6.218 0 0 0-1.57 0zm19.92 6.159a4.282 4.282 0 0 0-2.359 1.442l-.262.393v-1.571h-4.98v13.367h4.98v-7.732a3.072 3.072 0 0 1 .655-1.311 1.8 1.8 0 0 1 2.359.262c.393.524.393.524.393 4.718v3.932h4.98v-4.455c0-4.718 0-5.242-.262-6.159a3.8 3.8 0 0 0-1.179-1.966 3.246 3.246 0 0 0-1.835-1.048 15.049 15.049 0 0 0-2.488.13zm12.45-.131a6.5 6.5 0 0 0-2.621 1.048 7.206 7.206 0 0 0-2.752 4.587 11.6 11.6 0 0 0 0 3.014 7.608 7.608 0 0 0 1.311 3.145 5.719 5.719 0 0 0 3.538 2.228 6.411 6.411 0 0 0 2.752-.131 5.7 5.7 0 0 0 1.966-1.048l.524-.524v1.312h4.98V74.223h-4.98v1.311l-.393-.131a4.557 4.557 0 0 0-2.621-1.311 7.472 7.472 0 0 0-1.697-.131zm19 .131a4.027 4.027 0 0 0-2.359 1.442l-.262.262v-1.571H124.5V87.59h4.98v-3.8c0-4.063 0-4.063.262-4.718a1.441 1.441 0 0 1 1.311-.786 1.829 1.829 0 0 1 1.179.393c.524.524.524.393.524 4.849v3.932h4.98v-4.85c0-4.849 0-4.849-.131-5.373a12.376 12.376 0 0 1-.393-1.179 3.154 3.154 0 0 0-.786-1.048 5.015 5.015 0 0 0-1.442-1.048 10.653 10.653 0 0 0-2.884.13zm12.974 0a6.738 6.738 0 0 0-4.98 3.276c-.262.524-.524 1.179-.786 1.835a6.964 6.964 0 0 0-.131 1.835 5 5 0 0 0 .393 2.49 6.825 6.825 0 0 0 5.111 4.456 5.443 5.443 0 0 0 1.7.131 5.738 5.738 0 0 0 2.752-.524l.524-.262v-4.454l-.393.262a3.009 3.009 0 0 1-1.835.524 3.34 3.34 0 0 1-1.7-.262 2.572 2.572 0 0 1-1.179-1.179 2.253 2.253 0 0 1-.131-1.048 2.555 2.555 0 0 1 .131-1.048 2.8 2.8 0 0 1 2.621-1.7 4.507 4.507 0 0 1 2.621.655v-4.461l-.393-.131a8.285 8.285 0 0 0-4.32-.393zm11.27 0a7.26 7.26 0 0 0-4.718 11.139 6.332 6.332 0 0 0 4.194 2.752 18.405 18.405 0 0 0 3.8 0 6.683 6.683 0 0 0 3.407-1.835 14.366 14.366 0 0 0 1.048-1.311s-.917-.393-2.1-.786l-2.1-.786-.262.262a2.128 2.128 0 0 1-1.179.655 2.454 2.454 0 0 1-3.145-1.7v-.262h9.174v-1.18a4.521 4.521 0 0 0-.131-1.573A6.985 6.985 0 0 0 162.5 75.8a6.043 6.043 0 0 0-3.407-1.7 9.67 9.67 0 0 0-2.751-.008zM86.1 81.038v6.684h4.98V74.354H86.1zm72.21-3.276a3.284 3.284 0 0 1 .917.524 1.327 1.327 0 0 1 .524.917v.262h-2.228c-2.49 0-2.359 0-2.1-.524a2.5 2.5 0 0 1 2.885-1.18zm-42.33.655a2.674 2.674 0 0 1 .131 5.111 4.33 4.33 0 0 1-1.835 0 2.475 2.475 0 0 1-1.7-1.7 2.23 2.23 0 0 1-.131-.917 1.412 1.412 0 0 1 .262-1.048 2.84 2.84 0 0 1 3.272-1.446z" transform="translate(-19 -31.5)" style="fill:#fff;fill-rule:evenodd"/>
</svg>
